<svg version="1.1" xmlns="http://www.w3.org/2000/svg" xmlns:xlink="http://www.w3.org/1999/xlink" viewBox="0 0 172 172"><g fill="none" fill-rule="nonzero" stroke="none" stroke-width="1" stroke-linecap="butt" stroke-linejoin="miter" stroke-miterlimit="10" stroke-dasharray="" stroke-dashoffset="0" font-family="none" font-weight="none" font-size="none" text-anchor="none" style="mix-blend-mode: normal"><path d="M0,172v-172h172v172z" fill="none"></path><g id="original-icon" fill="#000000"><path d="M115.71755,31.0613c-13.56671,-5.6851 -22.53365,-10.07813 -23.20553,-17.88221c0,-4.1863 0,-6.97717 0,-7.82993c0,-6.61538 -13.02404,-6.40865 -13.02404,0c0,6.40865 0,114.39964 0,114.39964c0,0 0,1.05949 0,1.08533c0,0 -9.53546,-5.6851 -21.34495,-3.64363c-22.71454,3.97956 -30.3119,17.54628 -30.3119,31.57812c0,14.03185 17.59796,24.39423 35.01503,21.91346c17.44291,-2.45492 29.66587,-17.18449 29.66587,-31.21635c0,0 0,-39.64062 0,-71.91646c5.65926,3.69531 12.27464,6.40865 18.32151,8.78606c12.45553,4.93569 20.00121,8.34675 20.00121,14.41947c0,3.66947 2.94591,6.61538 6.61538,6.61538c3.64363,0 6.61538,-2.94591 6.61538,-6.61538v-32.84435c0,-14.96213 -15.06551,-21.26742 -28.34796,-26.84915z"></path></g></g></svg>