<?xml version="1.0" ?><svg viewBox="0 0 512 512" xmlns="http://www.w3.org/2000/svg"><g id="Eclipse"><path d="M223.2363,342.7529a144.8413,144.8413,0,0,1,0-173.5058,145.8026,145.8026,0,0,1,34.73-33.0512c-.6551-.0107-1.3091-.025-1.9666-.025a119.8291,119.8291,0,0,0,0,239.6582c.6572,0,1.311-.0143,1.9658-.025A145.8009,145.8009,0,0,1,223.2363,342.7529Z"/><path d="M239.2412,181.24a124.8425,124.8425,0,0,0,0,149.52A126.177,126.177,0,0,0,290.26,370.8307a119.8337,119.8337,0,0,0,0-229.6614A126.177,126.177,0,0,0,239.2412,181.24Z"/><path d="M256,121.8916a10,10,0,0,1-10-10V80.98a10,10,0,0,1,20,0v30.9116A10,10,0,0,1,256,121.8916Z"/><path d="M256,441.02a10,10,0,0,1-10-10V400.1084a10,10,0,0,1,20,0V431.02A10,10,0,0,1,256,441.02Z"/><path d="M111.8916,266H80.9805a10,10,0,0,1,0-20h30.9111a10,10,0,0,1,0,20Z"/><path d="M431.02,266H400.1084a10,10,0,0,1,0-20H431.02a10,10,0,0,1,0,20Z"/><path d="M132.2422,389.7578a10,10,0,0,1-7.0713-17.0713l21.8574-21.8574a10,10,0,1,1,14.1426,14.1426l-21.8574,21.8574A9.9692,9.9692,0,0,1,132.2422,389.7578Z"/><path d="M357.9,164.1a10,10,0,0,1-7.0713-17.0708l21.8574-21.8579a10,10,0,1,1,14.1426,14.1416l-21.8574,21.8579A9.97,9.97,0,0,1,357.9,164.1Z"/><path d="M379.7578,389.7578a9.9692,9.9692,0,0,1-7.0713-2.9287l-21.8574-21.8574a10,10,0,0,1,14.1426-14.1426l21.8574,21.8574a10,10,0,0,1-7.0713,17.0713Z"/><path d="M154.1,164.1a9.9677,9.9677,0,0,1-7.0713-2.9292L125.1709,139.313a10,10,0,1,1,14.1426-14.1416l21.8574,21.8579A10,10,0,0,1,154.1,164.1Z"/></g></svg>